<svg xmlns:dc="http://purl.org/dc/elements/1.1/" xmlns:cc="http://creativecommons.org/ns#" xmlns:rdf="http://www.w3.org/1999/02/22-rdf-syntax-ns#" xmlns:svg="http://www.w3.org/2000/svg" xmlns="http://www.w3.org/2000/svg" xmlns:sodipodi="http://sodipodi.sourceforge.net/DTD/sodipodi-0.dtd" xmlns:inkscape="http://www.inkscape.org/namespaces/inkscape" viewBox="0 0 12.7 15.875" version="1.1" x="0px" y="0px"><g transform="translate(0,-284.29999)"><g transform="matrix(0.78797851,0,0,0.78797851,3785.3798,-222.59024)" style="" fill="#000000"><path transform="matrix(0.26458333,0,0,0.26458333,0,284.29998)" d="m -18128.123,1373.3926 a 2.1605782,2.1605782 0 0 0 0,0.016 8.9739534,8.9739534 0 0 0 0.02,-0.016 z m 0,0.016 a 8.9739534,8.9739534 0 0 1 -10.92,0.8125 1.4769553,1.4769553 0 0 1 -1.637,1.0645 0.02658909,0.02658909 0 0 0 0,0.01 0.02658909,0.02658909 0 0 0 0,0.01 v 4.957 a 7.2513914,7.2513914 0 0 0 14.502,0 v -5.1367 a 0.02658909,0.02658909 0 0 0 0,-0.01 0.02658909,0.02658909 0 0 0 0,-0.01 2.1605782,2.1605782 0 0 1 -1.871,-1.6973 z m -8.813,4.8711 a 0.74204768,0.74204768 0 0 1 0.75,0.7539 0.74204768,0.74204768 0 1 1 -1.482,0 0.74204768,0.74204768 0 0 1 0.732,-0.7539 z m 6.877,0.014 a 0.74211023,0.74211023 0 0 1 0.764,0.7402 0.74211023,0.74211023 0 1 1 -1.482,0 0.74211023,0.74211023 0 0 1 0.718,-0.7402 z m -1.299,5.6113 a 0.37131421,0.37131421 0 0 1 0.211,0.6719 4.0000712,4.0000712 0 0 1 -4.668,0 0.37085484,0.37085484 0 0 1 0.432,-0.6016 3.2583618,3.2583618 0 0 0 3.803,0 0.37131421,0.37131421 0 0 1 0.222,-0.07 z" style="" fill="#000000" stroke="none"/><path transform="matrix(0.26458333,0,0,0.26458333,0,284.29998)" d="m -18117.795,1359.3105 a 3.0041066,3.0041066 0 0 0 -3.004,3.004 v 8.7714 a 3.0041066,3.0041066 0 0 0 3.004,3.0039 h 0.356 v 1.7696 a 0.56834869,0.56834869 0 0 0 0.919,0.4472 l 2.745,-2.1543 a 0.28745798,0.28745798 0 0 1 0.177,-0.063 h 10.903 a 3.0041066,3.0041066 0 0 0 3.002,-3.0039 v -8.7714 a 3.0041066,3.0041066 0 0 0 -3.002,-3.004 z m 9.635,1.6075 a 0.37085492,0.37085492 0 0 1 0.361,0.4843 l -3.656,10.668 a 0.37085484,0.37085484 0 0 1 -0.701,-0.2402 l 3.656,-10.668 a 0.37085492,0.37085492 0 0 1 0.34,-0.2441 z m 1.607,2.0371 a 0.37104068,0.37104068 0 0 1 0.268,0.1094 l 3.144,3.1445 a 0.6489959,0.6489959 0 0 1 0,0.918 l -3.144,3.1445 a 0.3717261,0.3717261 0 0 1 -0.526,-0.5254 l 3.079,-3.0781 -3.079,-3.0782 a 0.37104068,0.37104068 0 0 1 0.258,-0.6347 z m -7.441,0 a 0.37104068,0.37104068 0 0 1 0.279,0.6328 l -3.08,3.0782 3.08,3.0781 a 0.37137251,0.37137251 0 1 1 -0.525,0.5254 l -3.143,-3.1445 a 0.6489959,0.6489959 0 0 1 0,-0.918 l 3.143,-3.1445 a 0.37104068,0.37104068 0 0 1 0.246,-0.1075 z" style="" fill="#000000" stroke="none"/><path d="m -4793.3629,653.23829 h -8.9061 a 1.1237595,1.1237595 0 0 1 0.6445,-0.46219 l 2.0698,-0.55364 a 0.70906277,0.70906277 0 0 0 0.5257,-0.68498 v -0.30885 a 2.1148414,2.1148414 0 0 0 2.4261,0 v 0.30885 a 0.70906277,0.70906277 0 0 0 0.5257,0.68498 l 2.0698,0.55364 a 1.1237595,1.1237595 0 0 1 0.6445,0.46219 z" style="" fill="#000000" stroke="none"/><path d="m -4793.176,658.45426 0.3739,-4.6434 a 0.34833312,0.34833312 0 0 0 -0.3473,-0.37633 h -9.3331 a 0.34833312,0.34833312 0 0 0 -0.3472,0.37633 l 0.3745,4.6434 a 0.29436602,0.29436602 0 0 0 0.2933,0.27071 h 8.6926 a 0.29436602,0.29436602 0 0 0 0.2933,-0.27071 z" style="" fill="#000000" stroke="none"/><path d="m -4795.4158,648.66652 a 1.7220308,1.7220308 0 0 1 -0.2849,0.31065 v 0.51899 a 2.1148414,2.1148414 0 0 1 -0.01,0.19547 0.70405675,0.70405675 0 0 0 0.294,-1.02511 z" style="" fill="#000000" stroke="none"/><path d="m -4799.9214,649.69163 a 0.70405675,0.70405675 0 0 1 -0.3018,-1.01286 1.7048179,1.7048179 0 0 0 0.2927,0.33103 v 0.48636 a 2.1148414,2.1148414 0 0 0 0.01,0.19547 z" style="" fill="#000000" stroke="none"/><path d="m -4799.6975,647.98352 a 0.20327905,0.20327905 0 0 0 -0.233,0.2011 v 0.55051 a 1.5085739,1.5085739 0 0 1 0.6172,-2.43289 1.9243932,1.9243932 0 0 1 2.9077,-0.1044 1.5257867,1.5257867 0 0 1 0.7049,2.50806 v -0.56874 a 0.20327905,0.20327905 0 0 0 -0.1805,-0.20198 0.37540896,0.37540896 0 0 1 -0.3238,-0.29006 0.20327905,0.20327905 0 0 0 -0.3336,-0.10683 2.1781145,2.1781145 0 0 1 -2.639,0.19832 0.20327905,0.20327905 0 0 0 -0.3057,0.11109 0.19453374,0.19453374 0 0 1 -0.2142,0.13582 z" style="" fill="#000000" stroke="none"/></g></g><text x="0" y="27.7" fill="#000000" font-size="5px" font-weight="bold" font-family="'Helvetica Neue', Helvetica, Arial-Unicode, Arial, Sans-serif">Created by Phạm Thanh Lộc</text><text x="0" y="32.7" fill="#000000" font-size="5px" font-weight="bold" font-family="'Helvetica Neue', Helvetica, Arial-Unicode, Arial, Sans-serif">from the Noun Project</text></svg>